<?xml version="1.0" encoding="UTF-8" standalone="no"?>
<svg
   xmlns:dc="http://purl.org/dc/elements/1.1/"
   xmlns:cc="http://creativecommons.org/ns#"
   xmlns:rdf="http://www.w3.org/1999/02/22-rdf-syntax-ns#"
   xmlns:svg="http://www.w3.org/2000/svg"
   xmlns="http://www.w3.org/2000/svg"
   xmlns:sodipodi="http://sodipodi.sourceforge.net/DTD/sodipodi-0.dtd"
   xmlns:inkscape="http://www.inkscape.org/namespaces/inkscape"
   viewBox="0 0 512 512"
   style="height: 512px; width: 512px;"
   version="1.1"
   id="svg8"
   sodipodi:docname="weather-tailwind.svg"
   inkscape:version="0.92.4 (5da689c313, 2019-01-14)">
  <metadata
     id="metadata14">
    <rdf:RDF>
      <cc:Work
         rdf:about="">
        <dc:format>image/svg+xml</dc:format>
        <dc:type
           rdf:resource="http://purl.org/dc/dcmitype/StillImage" />
        <dc:title />
      </cc:Work>
    </rdf:RDF>
  </metadata>
  <defs
     id="defs12" />
  <sodipodi:namedview
     pagecolor="#ffffff"
     bordercolor="#666666"
     borderopacity="1"
     objecttolerance="10"
     gridtolerance="10"
     guidetolerance="10"
     inkscape:pageopacity="0"
     inkscape:pageshadow="2"
     inkscape:window-width="3828"
     inkscape:window-height="2127"
     id="namedview10"
     showgrid="false"
     inkscape:zoom="3.7246094"
     inkscape:cx="221.23125"
     inkscape:cy="256"
     inkscape:window-x="0"
     inkscape:window-y="0"
     inkscape:window-maximized="0"
     inkscape:current-layer="svg8" />
  <rect
     style="opacity:1;fill:#020800;fill-opacity:1;stroke:none;stroke-width:3.2692914;stroke-linecap:round;stroke-linejoin:round;stroke-miterlimit:4;stroke-dasharray:19.61574803, 3.26929134000000010;stroke-dashoffset:0;stroke-opacity:1"
     id="rect21"
     width="512"
     height="512"
     x="0"
     y="0"
     ry="102.24149" />
  <g
     aria-label="+1"
     transform="rotate(-22.021064)"
     style="font-style:normal;font-variant:normal;font-weight:normal;font-stretch:normal;font-size:40px;line-height:125%;font-family:Korinna;-inkscape-font-specification:Korinna;letter-spacing:0px;word-spacing:0px;fill:#000000;fill-opacity:1;stroke:none;stroke-width:1px;stroke-linecap:butt;stroke-linejoin:miter;stroke-opacity:1"
     id="text19" />
  <g
     id="g838"
     transform="translate(-22.046344,-24.306408)">
    <path
       d="m 484.46256,283.44684 -121.4162,143.80015 c -6.39127,7.56528 -15.54032,12.30092 -25.40887,13.1327 l -0.0985,-0.007 c -9.83458,0.80335 -19.60671,-2.32708 -27.14821,-8.69701 l -16.40433,-13.85812 26.47513,50.46006 c 2.21945,4.2277 6.45778,7.72877 11.01624,9.14904 4.55882,1.41935 9.98508,0.93249 14.21277,-1.28697 l 171.55743,-90.07114 c 4.22768,-2.21945 7.71763,-6.42992 9.13697,-10.98875 1.42121,-4.55808 0.91576,-10.02407 -1.30369,-14.25177 L 484.46381,283.44632 Z M 189.22,96.03 l 63.843,174 c 3.41,9.3 2.975,19.61 -1.188,28.595 -4.163,8.986 -11.734,15.965 -21.03,19.375 l -27.44,10.063 60,2.78 c 4.77,0.223 9.91,-1.66 13.44,-4.874 3.528,-3.217 5.87,-8.17 6.092,-12.94 l 9,-193.5 c 0.222,-4.768 -1.628,-9.938 -4.843,-13.468 -3.216,-3.53 -8.168,-5.87 -12.938,-6.093 l -84.937,-3.94 z m 121,33.25 -8.626,184.626 c -0.46,9.893 -4.836,19.237 -12.156,25.906 -7.32,6.67 -17.014,10.148 -26.907,9.688 l -26.06,-1.22 69.374,23.095 c 4.53,1.507 10.012,1.107 14.28,-1.03 4.27,-2.14 7.838,-6.283 9.345,-10.814 l 61.155,-183.81 c 1.507,-4.532 1.107,-10.013 -1.03,-14.282 -2.14,-4.27 -6.283,-7.87 -10.814,-9.375 l -68.56,-22.782 z m 96.374,57.565 -59.374,178.592 c -3.127,9.397 -9.865,17.19 -18.72,21.625 l -0.094,0.03 c -8.834,4.396 -19.07,5.116 -28.437,2 l -20.376,-6.78 43.312,37.03 c 3.63,3.102 8.865,4.78 13.625,4.407 4.76,-0.374 9.618,-2.84 12.72,-6.47 l 125.875,-147.31 c 3.102,-3.63 4.78,-8.835 4.406,-13.595 -0.372,-4.76 -2.87,-9.648 -6.5,-12.75 l -66.436,-56.78 z M 150.156,82.406 c -1.843,0.092 -3.663,0.446 -5.344,1.063 L 41.094,121.53 c -4.483,1.645 -8.493,5.357 -10.5,9.69 -2.007,4.33 -2.238,9.798 -0.594,14.28 l 66.72,181.875 c 1.643,4.482 5.354,8.524 9.686,10.53 4.332,2.008 9.8,2.24 14.28,0.595 l 103.72,-38.063 c 4.483,-1.644 8.493,-5.355 10.5,-9.687 l 0.03,-0.063 c 1.982,-4.322 2.2,-9.757 0.564,-14.218 L 168.78,94.593 c -1.635,-4.46 -5.318,-8.484 -9.624,-10.5 l -0.062,-0.03 c -2.166,-1.005 -4.623,-1.556 -7.094,-1.658 -0.618,-0.025 -1.23,-0.03 -1.844,0 z"
       style="fill:#ffffff;fill-opacity:1"
       id="path23"
       inkscape:connector-curvature="0" />
    <path
       d="m 110.8142,228.13202 9.40298,23.24858 -7.98491,3.22953 -9.40298,-23.24858 -23.031302,9.3151 -3.207559,-7.9306 23.031301,-9.3151 -9.402977,-23.24857 7.984909,-3.22953 9.402978,23.24858 23.0313,-9.3151 3.20756,7.93059 z m 50.34881,18.06473 -3.36134,-8.31082 19.50056,-7.88708 -23.81503,-58.88191 -12.28638,19.31676 -3.73482,-9.23424 13.05723,-19.75495 9.01697,-3.64695 27.59378,68.2248 18.63146,-7.53556 3.36134,8.31082 z"
       style="fill:#000000;fill-opacity:1"
       id="path17"
       inkscape:connector-curvature="0" />
  </g>
</svg>
