<?xml version="1.0" encoding="UTF-8" standalone="no"?>
<svg
   xmlns:dc="http://purl.org/dc/elements/1.1/"
   xmlns:cc="http://creativecommons.org/ns#"
   xmlns:rdf="http://www.w3.org/1999/02/22-rdf-syntax-ns#"
   xmlns:svg="http://www.w3.org/2000/svg"
   xmlns="http://www.w3.org/2000/svg"
   xmlns:sodipodi="http://sodipodi.sourceforge.net/DTD/sodipodi-0.dtd"
   xmlns:inkscape="http://www.inkscape.org/namespaces/inkscape"
   viewBox="0 0 512 512"
   style="height: 512px; width: 512px;"
   version="1.1"
   id="svg8"
   sodipodi:docname="weather-headwind.svg"
   inkscape:version="0.92.4 (5da689c313, 2019-01-14)">
  <metadata
     id="metadata14">
    <rdf:RDF>
      <cc:Work
         rdf:about="">
        <dc:format>image/svg+xml</dc:format>
        <dc:type
           rdf:resource="http://purl.org/dc/dcmitype/StillImage" />
        <dc:title />
      </cc:Work>
    </rdf:RDF>
  </metadata>
  <defs
     id="defs12" />
  <sodipodi:namedview
     pagecolor="#ffffff"
     bordercolor="#666666"
     borderopacity="1"
     objecttolerance="10"
     gridtolerance="10"
     guidetolerance="10"
     inkscape:pageopacity="0"
     inkscape:pageshadow="2"
     inkscape:window-width="3828"
     inkscape:window-height="2127"
     id="namedview10"
     showgrid="false"
     inkscape:zoom="3.7246094"
     inkscape:cx="218.27792"
     inkscape:cy="256"
     inkscape:window-x="0"
     inkscape:window-y="0"
     inkscape:window-maximized="0"
     inkscape:current-layer="svg8" />
  <rect
     style="opacity:1;fill:#020800;fill-opacity:1;stroke:none;stroke-width:3.2692914;stroke-linecap:round;stroke-linejoin:round;stroke-miterlimit:4;stroke-dasharray:19.61574803, 3.26929134000000010;stroke-dashoffset:0;stroke-opacity:1"
     id="rect21"
     width="512"
     height="512"
     x="0"
     y="0"
     ry="102.24149" />
  <g
     id="g34"
     transform="translate(45.780317,28.668359)">
    <path
       d="m 310.22,129.28 -8.626,184.626 c -0.46,9.893 -4.836,19.237 -12.156,25.906 -7.32,6.67 -17.014,10.148 -26.907,9.688 l -26.06,-1.22 69.374,23.095 c 4.53,1.507 10.012,1.107 14.28,-1.03 4.27,-2.14 7.838,-6.283 9.345,-10.814 l 61.155,-183.81 c 1.507,-4.532 1.107,-10.013 -1.03,-14.282 -2.14,-4.27 -6.283,-7.87 -10.814,-9.375 l -68.56,-22.782 z m -121,-33.25 63.843,174 c 3.41,9.3 2.975,19.61 -1.188,28.595 -4.163,8.986 -11.734,15.965 -21.03,19.375 l -27.44,10.063 60,2.78 c 4.77,0.223 9.91,-1.66 13.44,-4.874 3.528,-3.217 5.87,-8.17 6.092,-12.94 l 9,-193.5 c 0.222,-4.768 -1.628,-9.938 -4.843,-13.468 -3.216,-3.53 -8.168,-5.87 -12.938,-6.093 l -84.937,-3.94 z M 150.156,82.406 c -1.843,0.092 -3.663,0.446 -5.344,1.063 L 41.094,121.53 c -4.483,1.645 -8.493,5.357 -10.5,9.69 -2.007,4.33 -2.238,9.798 -0.594,14.28 l 66.72,181.875 c 1.643,4.482 5.354,8.524 9.686,10.53 4.332,2.008 9.8,2.24 14.28,0.595 l 103.72,-38.063 c 4.483,-1.644 8.493,-5.355 10.5,-9.687 l 0.03,-0.063 c 1.982,-4.322 2.2,-9.757 0.564,-14.218 L 168.78,94.593 c -1.635,-4.46 -5.318,-8.484 -9.624,-10.5 l -0.062,-0.03 c -2.166,-1.005 -4.623,-1.556 -7.094,-1.658 -0.618,-0.025 -1.23,-0.03 -1.844,0 z"
       style="fill:#ffffff;fill-opacity:1"
       id="path12"
       inkscape:connector-curvature="0" />
    <text
       transform="rotate(-22.021064)"
       id="text19"
       y="286.07065"
       x="-7.3963571"
       style="font-style:normal;font-variant:normal;font-weight:normal;font-stretch:normal;font-size:40px;line-height:125%;font-family:Korinna;-inkscape-font-specification:Korinna;letter-spacing:0px;word-spacing:0px;fill:#000000;fill-opacity:1;stroke:none;stroke-width:1px;stroke-linecap:butt;stroke-linejoin:miter;stroke-opacity:1"
       xml:space="preserve"><tspan
         style="font-style:normal;font-variant:normal;font-weight:normal;font-stretch:normal;font-size:120px;font-family:'Liberation Sans';-inkscape-font-specification:'Liberation Sans'"
         y="286.07065"
         x="-7.3963571"
         id="tspan17"
         sodipodi:role="line">-1</tspan></text>
  </g>
</svg>
