<?xml version="1.0" encoding="UTF-8" standalone="no"?>
<svg
   xmlns:dc="http://purl.org/dc/elements/1.1/"
   xmlns:cc="http://creativecommons.org/ns#"
   xmlns:rdf="http://www.w3.org/1999/02/22-rdf-syntax-ns#"
   xmlns:svg="http://www.w3.org/2000/svg"
   xmlns="http://www.w3.org/2000/svg"
   xmlns:sodipodi="http://sodipodi.sourceforge.net/DTD/sodipodi-0.dtd"
   xmlns:inkscape="http://www.inkscape.org/namespaces/inkscape"
   viewBox="0 0 512 512"
   style="height: 512px; width: 512px;"
   version="1.1"
   id="svg8"
   sodipodi:docname="icon_crosswind.svg"
   inkscape:version="0.92.4 (5da689c313, 2019-01-14)">
  <metadata
     id="metadata14">
    <rdf:RDF>
      <cc:Work
         rdf:about="">
        <dc:format>image/svg+xml</dc:format>
        <dc:type
           rdf:resource="http://purl.org/dc/dcmitype/StillImage" />
        <dc:title></dc:title>
      </cc:Work>
    </rdf:RDF>
  </metadata>
  <defs
     id="defs12" />
  <sodipodi:namedview
     pagecolor="#ffffff"
     bordercolor="#666666"
     borderopacity="1"
     objecttolerance="10"
     gridtolerance="10"
     guidetolerance="10"
     inkscape:pageopacity="0"
     inkscape:pageshadow="2"
     inkscape:window-width="1588"
     inkscape:window-height="866"
     id="namedview10"
     showgrid="false"
     inkscape:zoom="0.4609375"
     inkscape:cx="256"
     inkscape:cy="256"
     inkscape:window-x="0"
     inkscape:window-y="0"
     inkscape:window-maximized="0"
     inkscape:current-layer="svg8" />
  <rect
     style="opacity:1;fill:#020800;fill-opacity:1;stroke:none;stroke-width:3.2692914;stroke-linecap:round;stroke-linejoin:round;stroke-miterlimit:4;stroke-dasharray:19.61574803, 3.26929134;stroke-dashoffset:0;stroke-opacity:1"
     id="rect21"
     width="512"
     height="512"
     x="2.1694865"
     y="1.0344942e-06"
     ry="102.24149" />
  <g
     class=""
     transform="translate(0,0)"
     style="touch-action: none;"
     id="g6">
    <path
       d="M446.572 492.26c-70.9-25.76-157.852-68.623-227.857-124.94-59.28-47.69-105.936-98.75-138.307-147.944 54.324 63.48 143.362 129.306 255.75 181.51 52.552 24.408 105.607 43.44 156.853 57.81v-85.782c-55.75-13.377-114.278-33.344-172.304-60.295-73.743-34.253-136.533-74.167-183.894-115.62 72.805 49.005 178.796 92.765 302.112 119.347 18.29 3.944 36.086 7.565 54.087 10.567v-76.457c-31.79-3.728-64.292-8.414-97.356-15.54-94.3-20.327-177.547-51.718-240.3-87.645 83.46 37.45 203.265 61.61 337.655 64.025v-70.863c-15.215.637-29.944 1.242-45.588 1.242-195.255 0-346.713-48.31-428.59-121.212-9.91 191.205 34.25 281.387 186.745 434.5 16.274 13.093 33.47 25.568 50.223 37.297h190.768z"
       fill="#fff"
       fill-opacity="1"
       id="path4" />
  </g>
  <g
     id="g839"
     transform="rotate(135,-119.01774,374.74574)">
    <path
       id="path22"
       d="M -469.69531,-49.898438 A 241.8983,241.8983 0 0 0 -711.59375,192 241.8983,241.8983 0 0 0 -469.69531,433.89844 241.8983,241.8983 0 0 0 -227.79688,192 241.8983,241.8983 0 0 0 -469.69531,-49.898438 Z m 0,48.4863286 A 193.41238,193.41238 0 0 1 -276.2832,192 193.41238,193.41238 0 0 1 -469.69531,385.41211 193.41238,193.41238 0 0 1 -663.10742,192 193.41238,193.41238 0 0 1 -469.69531,-1.4121094 Z"
       style="opacity:1;fill:#ff0000;fill-opacity:1;stroke:none;stroke-width:3;stroke-linecap:round;stroke-linejoin:round;stroke-miterlimit:4;stroke-dasharray:18, 3;stroke-dashoffset:0;stroke-opacity:1"
       inkscape:connector-curvature="0" />
    <path
       inkscape:connector-curvature="0"
       id="path27"
       d="M -250.57667,192 H -688.81396"
       style="fill:none;fill-rule:evenodd;stroke:#ff0000;stroke-width:53.70000076;stroke-linecap:butt;stroke-linejoin:miter;stroke-miterlimit:4;stroke-dasharray:none;stroke-opacity:1" />
  </g>
</svg>
