<?xml version="1.0" encoding="UTF-8" standalone="no"?>
<svg
   xmlns:dc="http://purl.org/dc/elements/1.1/"
   xmlns:cc="http://creativecommons.org/ns#"
   xmlns:rdf="http://www.w3.org/1999/02/22-rdf-syntax-ns#"
   xmlns:svg="http://www.w3.org/2000/svg"
   xmlns="http://www.w3.org/2000/svg"
   xmlns:sodipodi="http://sodipodi.sourceforge.net/DTD/sodipodi-0.dtd"
   xmlns:inkscape="http://www.inkscape.org/namespaces/inkscape"
   width="2344.0986"
   height="1504.2764"
   viewBox="0 0 2344.0986 1504.2764"
   version="1.1"
   id="svg237"
   sodipodi:docname="icon_wine.svg"
   inkscape:version="0.92.4 (5da689c313, 2019-01-14)">
  <metadata
     id="metadata241">
    <rdf:RDF>
      <cc:Work
         rdf:about="">
        <dc:format>image/svg+xml</dc:format>
        <dc:type
           rdf:resource="http://purl.org/dc/dcmitype/StillImage" />
        <dc:title>2</dc:title>
      </cc:Work>
    </rdf:RDF>
  </metadata>
  <sodipodi:namedview
     pagecolor="#ffffff"
     bordercolor="#666666"
     borderopacity="1"
     objecttolerance="10"
     gridtolerance="10"
     guidetolerance="10"
     inkscape:pageopacity="0"
     inkscape:pageshadow="2"
     inkscape:window-width="1588"
     inkscape:window-height="866"
     id="namedview239"
     showgrid="false"
     inkscape:snap-global="false"
     fit-margin-top="0"
     fit-margin-left="0"
     fit-margin-right="0"
     fit-margin-bottom="0"
     inkscape:zoom="0.32217035"
     inkscape:cx="1282.3068"
     inkscape:cy="577.34566"
     inkscape:window-x="165"
     inkscape:window-y="60"
     inkscape:window-maximized="0"
     inkscape:current-layer="svg237" />
  <!-- Generator: Sketch 43.1 (39012) - http://www.bohemiancoding.com/sketch -->
  <title
     id="title114">2</title>
  <desc
     id="desc116">Created with Sketch.</desc>
  <defs
     id="defs137">
    <rect
       id="path-1"
       x="0"
       y="75"
       width="100"
       height="50" />
    <rect
       id="path-2"
       x="100"
       y="75"
       width="100"
       height="50" />
    <rect
       id="path-3"
       x="200"
       y="75"
       width="100"
       height="50" />
    <rect
       id="path-4"
       x="300"
       y="75"
       width="100"
       height="50" />
    <rect
       id="path-5"
       x="400"
       y="75"
       width="100"
       height="50" />
    <rect
       id="path-6"
       x="0"
       y="25"
       width="100"
       height="50" />
    <rect
       id="path-7"
       x="100"
       y="25"
       width="100"
       height="50" />
    <rect
       id="path-8"
       x="200"
       y="25"
       width="100"
       height="50" />
    <rect
       id="path-9"
       x="300"
       y="25"
       width="100"
       height="50" />
    <rect
       id="path-10"
       x="0"
       y="125"
       width="100"
       height="50" />
    <rect
       id="path-11"
       x="100"
       y="125"
       width="100"
       height="50" />
    <rect
       id="path-12"
       x="200"
       y="125"
       width="100"
       height="50" />
    <rect
       id="path-13"
       x="300"
       y="125"
       width="100"
       height="50" />
    <path
       d="m 400,125 h 100 v 25 10.5 c 0,0 -9.67018,14.5 -33,14.5 -10.71956,0 -17,0 -17,0 h -50 z"
       id="path-14"
       inkscape:connector-curvature="0" />
    <path
       d="m 400,25 h 100 v 25 10.5 c 0,0 -9.67018,14.5 -33,14.5 -10.71956,0 -17,0 -17,0 h -50 z"
       id="path-15"
       inkscape:connector-curvature="0" />
    <path
       d="m 500,100 h 100 v 50 c 0,0 -42.12959,0 -78,0 -13.16237,1.47384 -22,12 -22,12 z"
       id="path-16"
       inkscape:connector-curvature="0" />
    <path
       d="m 500,38 h 100 v 50 c 0,0 -42.12959,0 -78,0 -13.16237,1.473841 -22,12 -22,12 z"
       id="path-17"
       inkscape:connector-curvature="0" />
    <path
       d="m 0,175 h 475 c 0,0 12,0 25,-12.5 C 513,150 525,150 525,150 h 75 v 50 H 0 Z"
       id="path-18"
       inkscape:connector-curvature="0" />
    <path
       d="m 0,25 h 475 c 0,0 12,0 25,-12.5 C 513,0 525,0 525,0 h 75 V 50 H 0 Z"
       id="path-19"
       inkscape:connector-curvature="0" />
    <rect
       height="50"
       width="100"
       y="75"
       x="0"
       id="path-1-7" />
    <rect
       height="50"
       width="100"
       y="75"
       x="100"
       id="path-2-8" />
    <rect
       height="50"
       width="100"
       y="75"
       x="200"
       id="path-3-4" />
    <rect
       height="50"
       width="100"
       y="75"
       x="300"
       id="path-4-5" />
    <rect
       height="50"
       width="100"
       y="75"
       x="400"
       id="path-5-0" />
    <rect
       height="50"
       width="100"
       y="25"
       x="0"
       id="path-6-3" />
    <rect
       height="50"
       width="100"
       y="25"
       x="100"
       id="path-7-6" />
    <rect
       height="50"
       width="100"
       y="25"
       x="200"
       id="path-8-1" />
    <rect
       height="50"
       width="100"
       y="25"
       x="300"
       id="path-9-0" />
    <rect
       height="50"
       width="100"
       y="25"
       x="400"
       id="path-10-6" />
    <rect
       height="50"
       width="100"
       y="75"
       x="500"
       id="path-11-3" />
    <rect
       height="50"
       width="100"
       y="25"
       x="500"
       id="path-12-2" />
    <rect
       height="50"
       width="100"
       y="125"
       x="0"
       id="path-13-0" />
    <rect
       height="50"
       width="100"
       y="125"
       x="100"
       id="path-14-6" />
    <rect
       height="50"
       width="100"
       y="125"
       x="200"
       id="path-15-1" />
    <rect
       height="50"
       width="100"
       y="125"
       x="300"
       id="path-16-5" />
    <rect
       height="50"
       width="100"
       y="125"
       x="400"
       id="path-17-5" />
    <rect
       height="50"
       width="100"
       y="125"
       x="500"
       id="path-18-4" />
    <rect
       height="25"
       width="600"
       y="175"
       x="0"
       id="path-19-7" />
    <rect
       height="25"
       width="600"
       y="0"
       x="0"
       id="path-20" />
    <rect
       height="50"
       width="100"
       y="50"
       x="0"
       id="path-1-3" />
    <rect
       height="50"
       width="100"
       y="50"
       x="100"
       id="path-2-6" />
    <rect
       height="50"
       width="100"
       y="50"
       x="200"
       id="path-3-7" />
    <rect
       height="50"
       width="100"
       y="50"
       x="300"
       id="path-4-53" />
    <rect
       height="50"
       width="100"
       y="50"
       x="400"
       id="path-5-5" />
    <rect
       height="50"
       width="100"
       y="50"
       x="500"
       id="path-6-6" />
    <rect
       height="50"
       width="100"
       y="100"
       x="0"
       id="path-7-2" />
    <rect
       height="50"
       width="100"
       y="100"
       x="100"
       id="path-8-9" />
    <rect
       height="50"
       width="100"
       y="100"
       x="200"
       id="path-9-1" />
    <rect
       height="50"
       width="100"
       y="100"
       x="300"
       id="path-10-2" />
    <rect
       height="50"
       width="100"
       y="100"
       x="400"
       id="path-11-7" />
    <rect
       height="50"
       width="100"
       y="100"
       x="500"
       id="path-12-0" />
    <rect
       height="50"
       width="600"
       y="150"
       x="0"
       id="path-13-9" />
    <rect
       height="50"
       width="600"
       y="0"
       x="0"
       id="path-14-3" />
    <path
       id="path-1-9"
       d="M 0,100 V 200 C 110.45695,200 200,110.45695 200,0 H 100 C 100,55.228475 55.228475,100 4.3633753e-8,100 Z"
       inkscape:connector-curvature="0" />
    <path
       id="path-2-7"
       d="m 0,200 v 50 C 138.07119,250 250,138.07119 250,0 H 200 C 200,110.45695 110.45695,200 0,200 Z"
       inkscape:connector-curvature="0" />
    <path
       id="path-3-3"
       d="M 0,100 V 50 C 27.614238,50 50,27.614238 50,0 h 50 C 100,55.228475 55.228475,100 0,100 Z"
       inkscape:connector-curvature="0" />
    <path
       id="path-1-31"
       d="M 0,100 V 200 C 110.45695,200 200,110.45695 200,0 H 100 C 100,55.228475 55.228475,100 4.3633753e-8,100 Z"
       inkscape:connector-curvature="0" />
    <path
       id="path-2-9"
       d="m 0,200 v 50 C 138.07119,250 250,138.07119 250,0 H 200 C 200,110.45695 110.45695,200 0,200 Z"
       inkscape:connector-curvature="0" />
    <path
       id="path-3-47"
       d="M 0,100 V 50 C 27.614238,50 50,27.614238 50,0 h 50 C 100,55.228475 55.228475,100 0,100 Z"
       inkscape:connector-curvature="0" />
    <rect
       height="50"
       width="100"
       y="50"
       x="0"
       id="path-1-5" />
    <rect
       height="50"
       width="100"
       y="50"
       x="100"
       id="path-2-4" />
    <rect
       height="50"
       width="100"
       y="50"
       x="200"
       id="path-3-76" />
    <rect
       height="50"
       width="100"
       y="50"
       x="300"
       id="path-4-56" />
    <rect
       height="50"
       width="100"
       y="50"
       x="400"
       id="path-5-9" />
    <rect
       height="50"
       width="100"
       y="50"
       x="500"
       id="path-6-37" />
    <rect
       height="50"
       width="100"
       y="100"
       x="0"
       id="path-7-4" />
    <rect
       height="50"
       width="100"
       y="100"
       x="100"
       id="path-8-5" />
    <rect
       height="50"
       width="100"
       y="100"
       x="200"
       id="path-9-2" />
    <rect
       height="50"
       width="100"
       y="100"
       x="300"
       id="path-10-5" />
    <rect
       height="50"
       width="100"
       y="100"
       x="400"
       id="path-11-4" />
    <rect
       height="50"
       width="100"
       y="100"
       x="500"
       id="path-12-7" />
    <rect
       height="50"
       width="600"
       y="150"
       x="0"
       id="path-13-4" />
    <rect
       height="50"
       width="600"
       y="0"
       x="0"
       id="path-14-4" />
    <path
       id="path-1-1"
       d="M 0,100 V 200 C 110.45695,200 200,110.45695 200,0 H 100 C 100,55.228475 55.228475,100 4.3633753e-8,100 Z"
       inkscape:connector-curvature="0" />
    <path
       id="path-2-5"
       d="m 0,200 v 50 C 138.07119,250 250,138.07119 250,0 H 200 C 200,110.45695 110.45695,200 0,200 Z"
       inkscape:connector-curvature="0" />
    <path
       id="path-3-9"
       d="M 0,100 V 50 C 27.614238,50 50,27.614238 50,0 h 50 C 100,55.228475 55.228475,100 0,100 Z"
       inkscape:connector-curvature="0" />
    <path
       id="path-1-90"
       d="M 0,100 V 200 C 110.45695,200 200,110.45695 200,0 H 100 C 100,55.228475 55.228475,100 4.3633753e-8,100 Z"
       inkscape:connector-curvature="0" />
    <path
       id="path-2-88"
       d="m 0,200 v 50 C 138.07119,250 250,138.07119 250,0 H 200 C 200,110.45695 110.45695,200 0,200 Z"
       inkscape:connector-curvature="0" />
    <path
       id="path-3-5"
       d="M 0,100 V 50 C 27.614238,50 50,27.614238 50,0 h 50 C 100,55.228475 55.228475,100 0,100 Z"
       inkscape:connector-curvature="0" />
    <path
       id="path-1-4"
       d="m 283,109.28932 v 99.92136 c -96.70801,0 -184.260678,-39.19867 -247.636345,-102.57433 L 106.01872,35.981277 C 151.31218,81.274735 213.88451,109.28932 283,109.28932 Z"
       inkscape:connector-curvature="0" />
    <path
       id="path-2-47"
       d="m 283,59 v 50.21068 c -69.09377,0 -131.64644,-28.005786 -176.92567,-73.285013 L 141.57864,0.42135624 C 177.77152,36.614238 227.77152,59 283,59 Z"
       inkscape:connector-curvature="0" />
    <path
       id="path-3-6"
       d="M 283,209.42136 V 259 C 172.54305,259 72.54305,214.22847 0.15728753,141.84271 L 35.214683,106.78532 C 98.628475,170.19911 186.23381,209.42136 283,209.42136 Z"
       inkscape:connector-curvature="0" />
    <path
       id="path-1-17"
       d="m 283,109.28932 v 99.92136 c -96.70801,0 -184.260678,-39.19867 -247.636345,-102.57433 L 106.01872,35.981277 C 151.31218,81.274735 213.88451,109.28932 283,109.28932 Z"
       inkscape:connector-curvature="0" />
    <path
       id="path-2-85"
       d="m 283,59 v 50.21068 c -69.09377,0 -131.64644,-28.005786 -176.92567,-73.285013 L 141.57864,0.42135624 C 177.77152,36.614238 227.77152,59 283,59 Z"
       inkscape:connector-curvature="0" />
    <path
       id="path-3-74"
       d="M 283,209.42136 V 259 C 172.54305,259 72.54305,214.22847 0.15728753,141.84271 L 35.214683,106.78532 C 98.628475,170.19911 186.23381,209.42136 283,209.42136 Z"
       inkscape:connector-curvature="0" />
    <path
       id="path-1-318"
       d="M 0,100 V 200 C 110.45695,200 200,110.45695 200,0 H 100 C 100,55.228475 55.228475,100 4.3633753e-8,100 Z"
       inkscape:connector-curvature="0" />
    <path
       id="path-2-96"
       d="m 0,200 v 50 C 138.07119,250 250,138.07119 250,0 H 200 C 200,110.45695 110.45695,200 0,200 Z"
       inkscape:connector-curvature="0" />
    <path
       id="path-3-43"
       d="M 0,100 V 50 C 27.614238,50 50,27.614238 50,0 h 50 C 100,55.228475 55.228475,100 0,100 Z"
       inkscape:connector-curvature="0" />
    <path
       id="path-1-30"
       d="m 283,109.28932 v 99.92136 c -96.70801,0 -184.260678,-39.19867 -247.636345,-102.57433 L 106.01872,35.981277 C 151.31218,81.274735 213.88451,109.28932 283,109.28932 Z"
       inkscape:connector-curvature="0" />
    <path
       id="path-2-92"
       d="m 283,59 v 50.21068 c -69.09377,0 -131.64644,-28.005786 -176.92567,-73.285013 L 141.57864,0.42135624 C 177.77152,36.614238 227.77152,59 283,59 Z"
       inkscape:connector-curvature="0" />
    <path
       id="path-3-54"
       d="M 283,209.42136 V 259 C 172.54305,259 72.54305,214.22847 0.15728753,141.84271 L 35.214683,106.78532 C 98.628475,170.19911 186.23381,209.42136 283,209.42136 Z"
       inkscape:connector-curvature="0" />
    <path
       id="path-1-48"
       d="m 283,109.28932 v 99.92136 c -96.70801,0 -184.260678,-39.19867 -247.636345,-102.57433 L 106.01872,35.981277 C 151.31218,81.274735 213.88451,109.28932 283,109.28932 Z"
       inkscape:connector-curvature="0" />
    <path
       id="path-2-1"
       d="m 283,59 v 50.21068 c -69.09377,0 -131.64644,-28.005786 -176.92567,-73.285013 L 141.57864,0.42135624 C 177.77152,36.614238 227.77152,59 283,59 Z"
       inkscape:connector-curvature="0" />
    <path
       id="path-3-2"
       d="M 283,209.42136 V 259 C 172.54305,259 72.54305,214.22847 0.15728753,141.84271 L 35.214683,106.78532 C 98.628475,170.19911 186.23381,209.42136 283,209.42136 Z"
       inkscape:connector-curvature="0" />
    <path
       id="path-1-0"
       d="M 0,100 V 200 C 110.45695,200 200,110.45695 200,0 H 100 C 100,55.228475 55.228475,100 4.3633753e-8,100 Z"
       inkscape:connector-curvature="0" />
    <path
       id="path-2-64"
       d="m 0,200 v 50 C 138.07119,250 250,138.07119 250,0 H 200 C 200,110.45695 110.45695,200 0,200 Z"
       inkscape:connector-curvature="0" />
    <path
       id="path-3-62"
       d="M 0,100 V 50 C 27.614238,50 50,27.614238 50,0 h 50 C 100,55.228475 55.228475,100 0,100 Z"
       inkscape:connector-curvature="0" />
    <path
       id="path-1-03"
       d="m 283,109.28932 v 99.92136 c -96.70801,0 -184.260678,-39.19867 -247.636345,-102.57433 L 106.01872,35.981277 C 151.31218,81.274735 213.88451,109.28932 283,109.28932 Z"
       inkscape:connector-curvature="0" />
    <path
       id="path-2-40"
       d="m 283,59 v 50.21068 c -69.09377,0 -131.64644,-28.005786 -176.92567,-73.285013 L 141.57864,0.42135624 C 177.77152,36.614238 227.77152,59 283,59 Z"
       inkscape:connector-curvature="0" />
    <path
       id="path-3-39"
       d="M 283,209.42136 V 259 C 172.54305,259 72.54305,214.22847 0.15728753,141.84271 L 35.214683,106.78532 C 98.628475,170.19911 186.23381,209.42136 283,209.42136 Z"
       inkscape:connector-curvature="0" />
    <path
       id="path-1-40"
       d="m 283,109.28932 v 99.92136 c -96.70801,0 -184.260678,-39.19867 -247.636345,-102.57433 L 106.01872,35.981277 C 151.31218,81.274735 213.88451,109.28932 283,109.28932 Z"
       inkscape:connector-curvature="0" />
    <path
       id="path-2-0"
       d="m 283,59 v 50.21068 c -69.09377,0 -131.64644,-28.005786 -176.92567,-73.285013 L 141.57864,0.42135624 C 177.77152,36.614238 227.77152,59 283,59 Z"
       inkscape:connector-curvature="0" />
    <path
       id="path-3-46"
       d="M 283,209.42136 V 259 C 172.54305,259 72.54305,214.22847 0.15728753,141.84271 L 35.214683,106.78532 C 98.628475,170.19911 186.23381,209.42136 283,209.42136 Z"
       inkscape:connector-curvature="0" />
    <path
       id="path-1-13"
       d="M 0,100 V 200 C 110.45695,200 200,110.45695 200,0 H 100 C 100,55.228475 55.228475,100 4.3633753e-8,100 Z"
       inkscape:connector-curvature="0" />
    <path
       id="path-2-2"
       d="m 0,200 v 50 C 138.07119,250 250,138.07119 250,0 H 200 C 200,110.45695 110.45695,200 0,200 Z"
       inkscape:connector-curvature="0" />
    <path
       id="path-3-1"
       d="M 0,100 V 50 C 27.614238,50 50,27.614238 50,0 h 50 C 100,55.228475 55.228475,100 0,100 Z"
       inkscape:connector-curvature="0" />
    <rect
       height="50"
       width="100"
       y="50"
       x="0"
       id="path-1-04" />
    <rect
       height="50"
       width="100"
       y="50"
       x="100"
       id="path-2-22" />
    <rect
       height="50"
       width="100"
       y="50"
       x="200"
       id="path-3-20" />
    <rect
       height="50"
       width="100"
       y="50"
       x="300"
       id="path-4-55" />
    <rect
       height="50"
       width="100"
       y="50"
       x="400"
       id="path-5-2" />
    <rect
       height="50"
       width="100"
       y="50"
       x="500"
       id="path-6-9" />
    <rect
       height="50"
       width="100"
       y="100"
       x="0"
       id="path-7-0" />
    <rect
       height="50"
       width="100"
       y="100"
       x="100"
       id="path-8-2" />
    <rect
       height="50"
       width="100"
       y="100"
       x="200"
       id="path-9-8" />
    <rect
       height="50"
       width="100"
       y="100"
       x="300"
       id="path-10-3" />
    <rect
       height="50"
       width="100"
       y="100"
       x="400"
       id="path-11-8" />
    <rect
       height="50"
       width="100"
       y="100"
       x="500"
       id="path-12-04" />
    <rect
       height="50"
       width="600"
       y="150"
       x="0"
       id="path-13-09" />
    <rect
       height="50"
       width="600"
       y="0"
       x="0"
       id="path-14-1" />
    <rect
       height="50"
       width="100"
       y="75"
       x="0"
       id="path-1-36" />
    <rect
       height="50"
       width="100"
       y="75"
       x="100"
       id="path-2-75" />
    <rect
       height="50"
       width="100"
       y="75"
       x="200"
       id="path-3-35" />
    <rect
       height="50"
       width="100"
       y="75"
       x="300"
       id="path-4-6" />
    <rect
       height="50"
       width="100"
       y="75"
       x="400"
       id="path-5-29" />
    <rect
       height="50"
       width="100"
       y="25"
       x="100"
       id="path-6-1" />
    <rect
       height="50"
       width="100"
       y="25"
       x="200"
       id="path-7-27" />
    <rect
       height="50"
       width="100"
       y="25"
       x="300"
       id="path-8-0" />
    <rect
       height="50"
       width="100"
       y="125"
       x="100"
       id="path-9-9" />
    <rect
       height="50"
       width="100"
       y="125"
       x="200"
       id="path-10-36" />
    <rect
       height="50"
       width="100"
       y="125"
       x="300"
       id="path-11-0" />
    <path
       id="path-12-6"
       d="m 400,125 h 100 v 25 10.5 c 0,0 -9.67018,14.5 -33,14.5 -10.71956,0 -17,0 -17,0 h -50 z"
       inkscape:connector-curvature="0" />
    <path
       id="path-13-2"
       d="m 400,25 h 100 v 25 10.5 c 0,0 -9.67018,14.5 -33,14.5 -10.71956,0 -17,0 -17,0 h -50 z"
       inkscape:connector-curvature="0" />
    <path
       id="path-14-61"
       d="m 500,100 h 100 v 50 c 0,0 -42.12959,0 -78,0 -13.16237,1.47384 -22,12 -22,12 z"
       inkscape:connector-curvature="0" />
    <path
       id="path-15-8"
       d="m 500,38 h 100 v 50 c 0,0 -42.12959,0 -78,0 -13.16237,1.473841 -22,12 -22,12 z"
       inkscape:connector-curvature="0" />
    <path
       id="path-16-7"
       d="m 0,0 h 600 v 50 h -75 c 0,0 -12,0 -25,-12.5 C 491.92214,29.732822 484.23037,26.405862 479.5638,25 H 50 C 50,25 38,25 25,37.5 12,50 0,50 0,50 Z"
       inkscape:connector-curvature="0" />
    <path
       id="path-17-9"
       d="m 0,150 h 600 v 50 h -75 c 0,0 -12,0 -25,-12.5 -8.07786,-7.76718 -15.76963,-11.09414 -20.4362,-12.5 H 50 c 0,0 -12,0 -25,12.5 C 12,200 0,200 0,200 Z"
       inkscape:connector-curvature="0" />
    <path
       id="path-18-2"
       d="M 0,75 V 50 C 10.562009,48.817331 21.339279,41.805786 24,39.081542 24,39.081542 32.670179,25 56,25 h 44 v 50 z"
       inkscape:connector-curvature="0" />
    <path
       id="path-19-0"
       d="m 0,175 v -25 c 10.562009,-1.18267 21.339279,-8.19421 24,-10.91846 0,0 8.670179,-14.08154 32,-14.08154 h 44 v 50 z"
       inkscape:connector-curvature="0" />
    <rect
       height="50"
       width="100"
       y="75"
       x="0"
       id="path-1-06" />
    <rect
       height="50"
       width="100"
       y="75"
       x="100"
       id="path-2-3" />
    <path
       id="path-3-206"
       d="m 100,125 h 100 v 25 10.5 c 0,0 -9.67018,14.5 -33,14.5 -10.71956,0 -17,0 -17,0 h -50 z"
       inkscape:connector-curvature="0" />
    <path
       id="path-4-1"
       d="m 100,25 h 100 v 25 10.5 c 0,0 -9.67018,14.5 -33,14.5 -10.71956,0 -17,0 -17,0 h -50 z"
       inkscape:connector-curvature="0" />
    <path
       id="path-5-55"
       d="m 200,100 h 100 v 50 c 0,0 -42.12959,0 -78,0 -13.16237,1.47384 -22,12 -22,12 z"
       inkscape:connector-curvature="0" />
    <path
       id="path-6-4"
       d="m 200,38 h 100 v 50 c 0,0 -42.12959,0 -78,0 -13.16237,1.473841 -22,12 -22,12 z"
       inkscape:connector-curvature="0" />
    <path
       id="path-7-7"
       d="M 0,75 V 50 C 10.562009,48.817331 21.339279,41.805786 24,39.081542 24,39.081542 32.670179,25 56,25 h 44 v 50 z"
       inkscape:connector-curvature="0" />
    <path
       id="path-8-6"
       d="m 0,175 v -25 c 10.562009,-1.18267 21.339279,-8.19421 24,-10.91846 0,0 8.670179,-14.08154 32,-14.08154 h 44 v 50 z"
       inkscape:connector-curvature="0" />
    <path
       id="path-9-5"
       d="m 0,150 h 300 v 50 h -75 c 0,0 -12,0 -25,-12.5 -8.07787,-7.76718 -15.76963,-11.09414 -20.4362,-12.5 H 50 c 0,0 -12,0 -25,12.5 C 12,200 0,200 0,200 Z"
       inkscape:connector-curvature="0" />
    <path
       id="path-10-69"
       d="m 0,0 300,0 v 50 h -75 c 0,0 -12,0 -25,-12.5 C 191.92213,29.732822 184.23037,26.405862 179.5638,25 H 50 C 50,25 38,25 25,37.5 12,50 0,50 0,50 Z"
       inkscape:connector-curvature="0" />
  </defs>
  <g
     id="g995"
     transform="translate(-93.934019,-156.99522)">
    <rect
       style="opacity:1;fill:#020800;fill-opacity:1;stroke:none;stroke-width:0.97723752;stroke-linecap:round;stroke-linejoin:round;stroke-miterlimit:4;stroke-dasharray:5.86342504, 0.97723751;stroke-dashoffset:0;stroke-opacity:1"
       id="rect987"
       width="153.04405"
       height="153.04405"
       x="1210.8724"
       y="849.0459"
       ry="30.561432" />
    <g
       transform="matrix(0.29911425,0,0,0.29911425,1210.7321,847.49911)"
       id="g968"
       class="">
      <path
         id="path966"
         d="m 133.99,28 v 23.512 h 52.02 V 28 Z m 0,41.51 v 90.705 c -26.01,17.34 -43.347,39.014 -43.347,56.353 v 260.735 c 0,0 -0.003,16.697 17.337,16.697 h 103.967 c 17.411,0 17.41,-17.34 17.41,-17.34 V 216.568 c 0,-17.34 -17.338,-39.014 -43.347,-56.353 V 69.51 Z M 107,252 H 213 V 414 H 107 Z m 194.514,3 -2.051,6.154 c -8.474,25.423 -12.793,58.44 -6.233,86.87 3.28,14.215 9.429,27.45 19.846,37.273 8.61,8.118 20.105,13.533 33.924,15.172 v 74.64 C 327.601,479.296 302,494 302,494 h 108 c 0,0 -25.601,-14.705 -45,-18.89 v -74.641 c 13.82,-1.639 25.314,-7.054 33.924,-15.172 10.417,-9.822 16.565,-23.058 19.846,-37.274 6.56,-28.43 2.241,-61.446 -6.233,-86.869 L 410.487,255 H 301.513 Z M 125,270 v 126 h 70 V 270 Z m 189.703,3 h 82.594 c 2.639,9.261 4.629,19.565 5.68,30 h -93.954 c 1.051,-10.435 3.041,-20.739 5.68,-30 z m -6.486,48 h 95.566 c -0.116,8.04 -0.907,15.846 -2.553,22.977 -2.72,11.784 -7.571,21.548 -14.654,28.226 C 379.494,378.881 370.126,383 356,383 c -14.125,0 -23.494,-4.12 -30.576,-10.797 -7.083,-6.678 -11.935,-16.442 -14.654,-28.226 -1.646,-7.131 -2.437,-14.938 -2.553,-22.977 z"
         inkscape:connector-curvature="0"
         style="fill:#ffffff;fill-opacity:1" />
    </g>
  </g>
</svg>
